<?xml version="1.0" encoding="utf-8"?>
<!-- Generator: Adobe Illustrator 21.1.0, SVG Export Plug-In . SVG Version: 6.00 Build 0)  -->
<svg version="1.1" id="Calque_1" xmlns="http://www.w3.org/2000/svg" xmlns:xlink="http://www.w3.org/1999/xlink" x="0px" y="0px"
	 viewBox="0 0 226 223" style="enable-background:new 0 0 226 223;" xml:space="preserve">
<style type="text/css">
	.st0{fill:#FFFFFF;}
</style>
<path class="st0" d="M93.9,208.2c11,11,29,11,40,0l27.9-27.9H66.1L93.9,208.2z"/>
<path class="st0" d="M211.4,90.8l-77.5-77.5c-11-11-29-11-40,0L16.4,90.8c-11,11-11,29,0,40L60,174.4V174h49.8c0-0.1,0-0.2,0-0.4
	c0.9-25.6-2.5-41.5-6.6-51.2c-1.6-4.5-5.2-13.1-11.9-24.3c-1.9-3.2-4.2-6.7-6.7-10.3c0,0,2.4,5.2,4.5,12.4c0.6,2.2,1.2,4.6,1.7,7
	c0.7,3.8,1.2,7.8,1.1,11.8c-36.2,0-36-59.3-36-59.3s69.1,4.2,53.2,51.1c2.9,4.8,5.8,11.4,7.9,20.2c2.6-4.4,5.4-7.6,8.1-10
	C117,85,172,85.2,172,85.2s-2.9,47.2-32.8,44.5c1.1-11.7,12.4-23.4,12.4-23.4c-5.4,3.5-10.3,8.5-14.3,13.5
	c-4.5,5.6-7.8,11.1-9.7,14.3c-2.8,3.9-5.5,9.6-7.5,17.5c0.5,6.6,0.6,14,0.3,22.3h47.7l43.2-43.2C222.3,119.7,222.3,101.8,211.4,90.8
	L211.4,90.8z"/>
</svg>
