<?xml version="1.0" encoding="utf-8"?>
<!-- Generator: Adobe Illustrator 19.0.0, SVG Export Plug-In . SVG Version: 6.00 Build 0)  -->
<svg version="1.1" xmlns="http://www.w3.org/2000/svg" xmlns:xlink="http://www.w3.org/1999/xlink" x="0px" y="0px"
	 viewBox="0 0 414 320.9" style="enable-background:new 0 0 414 320.9;" xml:space="preserve">
<style type="text/css">
	.st0{fill:#58595B;}
	.st1{fill:#80C68B;}
</style>
<g id="Calque_2">
	<g id="XMLID_2_">
		<path id="XMLID_71_" class="st0" d="M12.8,277.2v-41.8h5.8V273h10.7v4.2H12.8z"/>
		<path id="XMLID_73_" class="st0" d="M33.3,277.2v-41.8h16.2v4.3H39.1v13.8h8.4v4.2h-8.4V273h10.5v4.2H33.3z"/>
		<path id="XMLID_75_" class="st0" d="M70.4,277.2v-37.5h-7.6v-4.3h20.8v4.3h-7.4v37.5H70.4z"/>
		<path id="XMLID_77_" class="st0" d="M84.3,277.2l8.9-41.8h5.6l8.9,41.8h-5.5l-1.9-10.5h-8.5l-2,10.5H84.3z M92.6,262.5h7
			l-3.5-18.9L92.6,262.5z"/>
		<path id="XMLID_80_" class="st0" d="M112,277.2v-41.8h9.6c3.8,0,6.6,0.8,8.4,2.5s2.7,4.3,2.7,7.9c0,5.3-2,8.3-6,8.8
			c2.5,0.6,4.3,1.8,5.4,3.5c1.1,1.7,1.7,4.1,1.7,7.1c0,3.8-0.9,6.7-2.6,8.8s-4.5,3.2-8.1,3.2H112z M117.8,252.8h3.4
			c2.4,0,4.1-0.5,5-1.6c0.9-1.1,1.4-2.9,1.4-5.4c0-0.8-0.1-1.5-0.2-2.2c-0.1-0.6-0.3-1.1-0.5-1.6c-0.2-0.4-0.5-0.8-0.8-1.1
			c-0.4-0.3-0.8-0.5-1.1-0.7c-0.4-0.2-0.9-0.3-1.6-0.4c-0.7-0.1-1.3-0.2-1.9-0.2c-0.6,0-1.4,0-2.4,0h-1.4V252.8z M117.8,273h3.9
			c2.5,0,4.2-0.6,5.2-1.8s1.4-3.2,1.4-6c0-2.7-0.6-4.7-1.7-6s-2.9-2-5.4-2h-3.5V273z"/>
		<path id="XMLID_84_" class="st0" d="M139.1,277.2v-41.8h5.8V273h10.7v4.2H139.1z"/>
		<path id="XMLID_86_" class="st0" d="M159.6,277.2v-41.8h16.2v4.3h-10.4v13.8h8.4v4.2h-8.4V273h10.5v4.2H159.6z"/>
		<path id="XMLID_88_" class="st0" d="M178.3,277.2l8.9-41.8h5.6l8.9,41.8h-5.5l-1.9-10.5h-8.5l-2,10.5H178.3z M186.6,262.5h7
			l-3.5-18.9L186.6,262.5z"/>
		<path id="XMLID_91_" class="st0" d="M221.4,276.9c-1.3,0.5-2.9,0.7-4.6,0.7s-3.3-0.2-4.7-0.7c-1.3-0.5-2.4-1.1-3.2-1.9
			c-0.8-0.8-1.5-1.8-2-3.1s-0.8-2.6-1-4c-0.2-1.4-0.3-3-0.3-4.9v-27.7h5.5v28c0,1.2,0,2.2,0.1,3.1s0.2,1.8,0.5,2.6s0.6,1.6,0.9,2.1
			c0.4,0.5,0.9,1,1.6,1.3s1.5,0.5,2.5,0.5c1,0,1.8-0.2,2.5-0.5c0.7-0.3,1.2-0.8,1.6-1.3c0.4-0.5,0.7-1.3,0.9-2.1
			c0.2-0.9,0.4-1.7,0.5-2.6s0.1-1.9,0.1-3.1v-28h5.5v27.7c0,1.9-0.1,3.5-0.3,4.9c-0.2,1.4-0.5,2.7-1,4s-1.2,2.3-2,3.1
			C223.8,275.8,222.7,276.5,221.4,276.9z"/>
		<path id="XMLID_93_" class="st0" d="M245.9,277.2v-41.8h9.1c4.5,0,7.7,1,9.6,3.1c1.9,2.1,2.8,5.3,2.8,9.7v15.4
			c0,4.6-0.9,8-2.8,10.3c-1.8,2.3-4.9,3.4-9.2,3.4H245.9z M251.7,273h3.3c0.9,0,1.7-0.1,2.4-0.3c0.7-0.2,1.2-0.4,1.7-0.6
			c0.5-0.2,0.8-0.6,1.1-1.2c0.3-0.5,0.5-1,0.7-1.5c0.2-0.5,0.3-1.1,0.4-2c0.1-0.9,0.1-1.7,0.2-2.3s0-1.5,0-2.7v-13.6
			c0-1,0-1.9-0.1-2.5c0-0.7-0.1-1.4-0.2-2.1c-0.1-0.7-0.3-1.3-0.5-1.7c-0.2-0.4-0.5-0.9-0.8-1.2c-0.3-0.4-0.7-0.7-1.2-0.9
			c-0.5-0.2-1-0.4-1.7-0.5c-0.6-0.1-1.4-0.2-2.2-0.2h-3.2V273z"/>
		<path id="XMLID_96_" class="st0" d="M273.1,277.2v-41.8h16.2v4.3h-10.4v13.8h8.4v4.2h-8.4V273h10.5v4.2H273.1z"/>
		<path id="XMLID_98_" class="st0" d="M305.9,277.2v-41.8h9.6c3.8,0,6.6,0.8,8.4,2.5s2.7,4.3,2.7,7.9c0,5.3-2,8.3-6,8.8
			c2.5,0.6,4.3,1.8,5.4,3.5c1.1,1.7,1.7,4.1,1.7,7.1c0,3.8-0.9,6.7-2.6,8.8s-4.5,3.2-8.1,3.2H305.9z M311.8,252.8h3.4
			c2.4,0,4.1-0.5,5-1.6c0.9-1.1,1.4-2.9,1.4-5.4c0-0.8-0.1-1.5-0.2-2.2c-0.1-0.6-0.3-1.1-0.5-1.6c-0.2-0.4-0.5-0.8-0.8-1.1
			c-0.4-0.3-0.8-0.5-1.1-0.7c-0.4-0.2-0.9-0.3-1.6-0.4c-0.7-0.1-1.3-0.2-1.9-0.2c-0.6,0-1.4,0-2.4,0h-1.4V252.8z M311.8,273h3.9
			c2.5,0,4.2-0.6,5.2-1.8s1.4-3.2,1.4-6c0-2.7-0.6-4.7-1.7-6s-2.9-2-5.4-2h-3.5V273z"/>
		<path id="XMLID_102_" class="st0" d="M343.6,277.6c-2.1,0-3.9-0.3-5.4-0.9c-1.5-0.6-2.7-1.5-3.5-2.7c-0.9-1.2-1.5-2.6-1.9-4.2
			c-0.4-1.6-0.6-3.5-0.6-5.6v-15.8c0-4.4,0.9-7.7,2.7-9.9c1.8-2.2,4.7-3.4,8.8-3.4c4.1,0,7,1.1,8.8,3.4c1.8,2.3,2.7,5.6,2.7,9.9
			v15.9c0,4.4-0.9,7.7-2.7,10C350.6,276.4,347.7,277.6,343.6,277.6z M340.8,272.5c0.7,0.4,1.7,0.5,2.8,0.5s2.1-0.2,2.8-0.5
			s1.3-0.9,1.7-1.6c0.4-0.7,0.7-1.5,0.8-2.4s0.2-1.9,0.2-3.2V247c0-1.3-0.1-2.3-0.2-3.2s-0.4-1.6-0.8-2.3c-0.4-0.7-1-1.2-1.7-1.6
			c-0.7-0.3-1.7-0.5-2.8-0.5s-2.1,0.2-2.8,0.5c-0.7,0.3-1.3,0.8-1.7,1.6s-0.7,1.5-0.8,2.3c-0.1,0.8-0.2,1.9-0.2,3.2v18.3
			c0,1.3,0.1,2.3,0.2,3.2c0.1,0.9,0.4,1.7,0.8,2.4C339.5,271.6,340.1,272.2,340.8,272.5z"/>
		<path id="XMLID_105_" class="st0" d="M360.8,277.2v-41.8h8.4c4.2,0,7.3,0.9,9.3,2.6c2,1.7,3,4.6,3,8.5c0,5.4-1.7,8.6-5.2,9.8l6,21
			h-5.6l-5.5-19.6h-4.5v19.6H360.8z M366.7,253.3h2.2c2.5,0,4.4-0.5,5.4-1.5c1.1-1,1.6-2.8,1.6-5.4c0-2.5-0.5-4.3-1.4-5.3
			c-0.9-1-2.7-1.5-5.3-1.5h-2.6V253.3z"/>
		<path id="XMLID_108_" class="st0" d="M387.7,277.2v-41.8h9.1c4.5,0,7.7,1,9.6,3.1c1.9,2.1,2.8,5.3,2.8,9.7v15.4
			c0,4.6-0.9,8-2.8,10.3c-1.8,2.3-4.9,3.4-9.2,3.4H387.7z M393.5,273h3.3c0.9,0,1.7-0.1,2.4-0.3c0.7-0.2,1.2-0.4,1.7-0.6
			c0.5-0.2,0.8-0.6,1.1-1.2c0.3-0.5,0.5-1,0.7-1.5c0.2-0.5,0.3-1.1,0.4-2c0.1-0.9,0.1-1.7,0.2-2.3s0-1.5,0-2.7v-13.6
			c0-1,0-1.9-0.1-2.5c0-0.7-0.1-1.4-0.2-2.1c-0.1-0.7-0.3-1.3-0.5-1.7c-0.2-0.4-0.5-0.9-0.8-1.2c-0.3-0.4-0.7-0.7-1.2-0.9
			c-0.5-0.2-1-0.4-1.7-0.5c-0.6-0.1-1.4-0.2-2.2-0.2h-3.2V273z"/>
	</g>
	<g id="XMLID_178_">
		<path id="XMLID_157_" class="st1" d="M257.8,292.2l-0.6-0.6c0.6-0.4,1-0.8,1.2-1.3c0.2-0.5,0.3-1.3,0.3-2.3h-1.2v-3.3h2.4v2.7
			c0,1.4-0.1,2.4-0.4,3.1C259.2,291.2,258.6,291.8,257.8,292.2z"/>
		<g id="XMLID_1_">
			<path id="XMLID_112_" class="st1" d="M70.2,314.2v-29.5h6.9c1.3,0,2.4,0.2,3.3,0.6c0.9,0.4,1.6,0.9,2.1,1.6
				c0.5,0.7,0.9,1.5,1.1,2.4c0.2,0.9,0.3,1.9,0.3,3.1c0,0.8-0.1,1.6-0.2,2.3s-0.4,1.4-0.7,2.1s-0.8,1.3-1.3,1.8
				c-0.5,0.5-1.2,0.9-1.9,1.2c-0.8,0.3-1.7,0.4-2.7,0.4h-5v14.1H70.2z M72.2,298.5h4.5c1.8,0,3.1-0.5,4-1.4c0.8-1,1.3-2.6,1.3-4.8
				c0-2.3-0.4-3.9-1.2-4.8s-2.1-1.3-4-1.3h-4.6V298.5z"/>
			<path id="XMLID_118_" class="st1" d="M86.3,314.2l6.2-29.5h2.3l6.2,29.5h-2l-1.5-8.2h-7.7l-1.6,8.2H86.3z M90.2,304.5h7.1
				L93.7,287L90.2,304.5z"/>
			<path id="XMLID_121_" class="st1" d="M105,314.2v-29.5h7.2c1,0,1.9,0.1,2.7,0.4s1.4,0.6,1.9,1c0.5,0.4,0.9,1,1.2,1.6
				c0.3,0.6,0.5,1.3,0.6,2c0.1,0.7,0.2,1.5,0.2,2.3c0,0.7,0,1.4-0.1,2c-0.1,0.6-0.2,1.2-0.4,1.8c-0.2,0.6-0.5,1.1-0.8,1.5
				c-0.3,0.4-0.7,0.8-1.3,1.1s-1.1,0.5-1.8,0.6l4.8,15.3h-2l-4.6-14.9H107v14.9H105z M107,297.8h5.1c0.9,0,1.7-0.1,2.3-0.4
				c0.6-0.3,1.1-0.7,1.4-1.2c0.3-0.5,0.6-1.1,0.7-1.8c0.1-0.7,0.2-1.5,0.2-2.5c0-2-0.3-3.4-1-4.3c-0.7-0.9-1.9-1.4-3.7-1.4H107
				V297.8z"/>
			<path id="XMLID_124_" class="st1" d="M130.4,314.2v-29.5h10.2v1.6h-8.2v11.9h7.1v1.5h-7.1v14.5H130.4z"/>
			<path id="XMLID_126_" class="st1" d="M144.3,314.2v-29.5h10.2v1.6h-8.2v11.8h6.7v1.5h-6.7v13h8.3v1.6H144.3z"/>
			<path id="XMLID_128_" class="st1" d="M158.7,314.2v-29.5h7.2c1,0,1.9,0.1,2.7,0.4s1.4,0.6,1.9,1c0.5,0.4,0.9,1,1.2,1.6
				c0.3,0.6,0.5,1.3,0.6,2c0.1,0.7,0.2,1.5,0.2,2.3c0,0.7,0,1.4-0.1,2c-0.1,0.6-0.2,1.2-0.4,1.8c-0.2,0.6-0.5,1.1-0.8,1.5
				c-0.3,0.4-0.7,0.8-1.3,1.1s-1.1,0.5-1.8,0.6l4.8,15.3h-2l-4.6-14.9h-5.5v14.9H158.7z M160.7,297.8h5.1c0.9,0,1.7-0.1,2.3-0.4
				c0.6-0.3,1.1-0.7,1.4-1.2c0.3-0.5,0.6-1.1,0.7-1.8c0.1-0.7,0.2-1.5,0.2-2.5c0-2-0.3-3.4-1-4.3c-0.7-0.9-1.9-1.4-3.7-1.4h-5.1
				V297.8z"/>
			<path id="XMLID_131_" class="st1" d="M176.9,314.2l0.9-29.5h2l6.3,26.6l6.3-26.6h2l0.9,29.5h-1.7l-0.7-24.8l-6,24.8h-1.4
				l-5.9-24.7l-0.7,24.7H176.9z"/>
			<path id="XMLID_150_" class="st1" d="M200.2,314.2v-29.5h10.2v1.6h-8.2v11.8h6.7v1.5h-6.7v13h8.3v1.6H200.2z"/>
			<path id="XMLID_152_" class="st1" d="M220.5,314.5c-4.3,0-6.7-2.6-7.1-7.7l1.7-0.6c0.1,0.8,0.2,1.6,0.4,2.2s0.4,1.2,0.6,1.8
				c0.3,0.6,0.6,1,1,1.4c0.4,0.4,0.9,0.7,1.4,0.9c0.6,0.2,1.2,0.3,2,0.3c3.1,0,4.7-1.6,4.7-4.8c0-1.2-0.3-2.3-0.9-3.3
				s-1.6-2.2-2.9-3.5L216,296c-1.7-1.7-2.6-3.6-2.6-5.6c0-1.9,0.6-3.4,1.8-4.5c1.2-1.1,2.7-1.6,4.7-1.6h0.1c2.1,0,3.7,0.6,4.9,1.7
				c1.1,1.1,1.8,3,2,5.7l-1.7,0.4c-0.2-2.1-0.7-3.7-1.4-4.7c-0.7-1-1.9-1.5-3.6-1.5h-0.2c-1.4,0-2.6,0.4-3.4,1.1s-1.3,1.8-1.3,3.2
				c0,0.8,0.2,1.5,0.5,2.2s0.9,1.5,1.7,2.3l5.3,5.3c1.4,1.4,2.4,2.7,3.2,4c0.8,1.3,1.2,2.7,1.2,4.1c0,2.1-0.6,3.8-1.8,4.9
				C224.1,314,222.5,314.5,220.5,314.5z"/>
			<path id="XMLID_154_" class="st1" d="M238,314.2v-29.5h6.5c1.4,0,2.6,0.2,3.6,0.6c1,0.4,1.8,1,2.3,1.8c0.6,0.8,1,1.7,1.2,2.7
				c0.2,1,0.4,2.1,0.4,3.3v12.2c0,1.3-0.1,2.5-0.4,3.5s-0.6,1.9-1.2,2.8c-0.5,0.8-1.3,1.4-2.3,1.9c-1,0.4-2.2,0.6-3.6,0.6H238z
				 M240,312.6h4.6c0.9,0,1.7-0.1,2.4-0.4c0.7-0.3,1.2-0.6,1.6-1c0.4-0.4,0.7-1,0.9-1.7c0.2-0.7,0.4-1.3,0.4-2
				c0.1-0.7,0.1-1.4,0.1-2.3v-11.9c0-0.9,0-1.7-0.1-2.4c-0.1-0.7-0.3-1.3-0.5-1.9s-0.6-1.1-1-1.5c-0.4-0.4-0.9-0.7-1.6-0.9
				c-0.7-0.2-1.4-0.3-2.3-0.3H240V312.6z"/>
			<path id="XMLID_159_" class="st1" d="M260.8,314.2l6.2-29.5h2.3l6.2,29.5h-2L272,306h-7.7l-1.6,8.2H260.8z M264.7,304.5h7.1
				l-3.6-17.5L264.7,304.5z"/>
			<path id="XMLID_162_" class="st1" d="M284.7,314.2l-7.1-29.5h1.9l6.1,26l5.8-26h1.9l-6.7,29.5H284.7z"/>
			<path id="XMLID_164_" class="st1" d="M297,314.2v-29.5h10.2v1.6H299v11.8h6.7v1.5H299v13h8.3v1.6H297z"/>
			<path id="XMLID_166_" class="st1" d="M311.3,314.2v-29.5h1.6l10,24.9v-24.9h1.8v29.5h-1.6l-10-25v25H311.3z"/>
			<path id="XMLID_168_" class="st1" d="M330.1,314.2v-29.5h2v29.5H330.1z"/>
			<path id="XMLID_170_" class="st1" d="M337.6,314.2v-29.5h7.2c1,0,1.9,0.1,2.7,0.4s1.4,0.6,1.9,1c0.5,0.4,0.9,1,1.2,1.6
				c0.3,0.6,0.5,1.3,0.6,2c0.1,0.7,0.2,1.5,0.2,2.3c0,0.7,0,1.4-0.1,2c-0.1,0.6-0.2,1.2-0.4,1.8c-0.2,0.6-0.5,1.1-0.8,1.5
				c-0.3,0.4-0.7,0.8-1.3,1.1s-1.1,0.5-1.8,0.6l4.8,15.3h-2l-4.6-14.9h-5.5v14.9H337.6z M339.6,297.8h5.1c0.9,0,1.7-0.1,2.3-0.4
				c0.6-0.3,1.1-0.7,1.4-1.2c0.3-0.5,0.6-1.1,0.7-1.8c0.1-0.7,0.2-1.5,0.2-2.5c0-2-0.3-3.4-1-4.3c-0.7-0.9-1.9-1.4-3.7-1.4h-5.1
				V297.8z"/>
		</g>
	</g>
</g>
<g id="Calque_1">
	<g id="XMLID_4_">
		<path id="XMLID_6_" class="st1" d="M190.9,208.7c11,11,29,11,40,0l27.9-27.9h-95.7L190.9,208.7z"/>
		<path id="XMLID_5_" class="st1" d="M308.4,91.3l-77.5-77.5c-11-11-29-11-40,0l-77.5,77.5c-11,11-11,29,0,40l43.6,43.6v-0.4h49.8
			c0-0.1,0-0.2,0-0.4c0.9-25.6-2.5-41.5-6.6-51.2c-1.6-4.5-5.2-13.1-11.9-24.3c-1.9-3.2-4.2-6.7-6.7-10.3c0,0,2.4,5.2,4.5,12.4
			c0.6,2.2,1.2,4.6,1.7,7c0.7,3.8,1.2,7.8,1.1,11.8c-36.2,0-36-59.3-36-59.3s69.1,4.2,53.2,51.1c2.9,4.8,5.8,11.4,7.9,20.2
			c2.6-4.4,5.4-7.6,8.1-10C214,85.5,269,85.7,269,85.7s-2.9,47.2-32.8,44.5c1.1-11.7,12.4-23.4,12.4-23.4
			c-5.4,3.5-10.3,8.5-14.3,13.5c-4.5,5.6-7.8,11.1-9.7,14.3c-2.8,3.9-5.5,9.6-7.5,17.5c0.5,6.6,0.6,14,0.3,22.3h47.7l43.2-43.2
			C319.3,120.2,319.3,102.3,308.4,91.3z"/>
	</g>
</g>
</svg>
