<?xml version="1.0" encoding="utf-8"?>
<!-- Generator: Adobe Illustrator 21.1.0, SVG Export Plug-In . SVG Version: 6.00 Build 0)  -->
<svg version="1.1" id="Calque_1" xmlns="http://www.w3.org/2000/svg" xmlns:xlink="http://www.w3.org/1999/xlink" x="0px" y="0px"
	 viewBox="0 0 279.4 182.5" style="enable-background:new 0 0 279.4 182.5;" xml:space="preserve">
<style type="text/css">
	.st0{fill:#E8E8E8;}
</style>
<path class="st0" d="M166.4,160.9c4.3-5.2,10.8-8.1,17.6-8.1h70.4c12.7,0,23.1-10.3,23.1-23c0,0,0,0,0-0.1v-105
	c0-12.7-10.3-23.1-23.1-23.1l0,0H25C12.3,1.7,1.9,12,1.9,24.8l0,0v105.2C1.9,142.6,12.2,153,25,153l0,0h65.7
	c5.7-0.1,11.2,2.1,15.5,5.9l0,0l17.3,15.7c9.5,8.5,24,7.9,32.6-1.6"/>
</svg>
